<mxfile host="app.diagrams.net" modified="2024-01-24T14:21:45.118Z" agent="Mozilla/5.0 (Windows NT 10.0; Win64; x64) AppleWebKit/537.36 (KHTML, like Gecko) Chrome/120.0.0.0 Safari/537.36 Edg/120.0.0.0" etag="a4WEP31VCDS6L252CGf5" version="23.0.1" type="github">
  <diagram id="R2lEEEUBdFMjLlhIrx00" name="Page-1">
    <mxGraphModel dx="869" dy="446" grid="1" gridSize="10" guides="1" tooltips="1" connect="1" arrows="1" fold="1" page="1" pageScale="1" pageWidth="850" pageHeight="1100" math="0" shadow="0" extFonts="Permanent Marker^https://fonts.googleapis.com/css?family=Permanent+Marker">
      <root>
        <mxCell id="0" />
        <mxCell id="1" parent="0" />
        <mxCell id="C-vyLk0tnHw3VtMMgP7b-1" value="" style="edgeStyle=entityRelationEdgeStyle;endArrow=ERzeroToMany;startArrow=ERone;endFill=1;startFill=0;entryX=-0.003;entryY=0.377;entryDx=0;entryDy=0;entryPerimeter=0;exitX=1.021;exitY=0.373;exitDx=0;exitDy=0;exitPerimeter=0;" parent="1" source="mP2uRWccmHhNL8mi_Wje-6" target="mP2uRWccmHhNL8mi_Wje-12" edge="1">
          <mxGeometry width="100" height="100" relative="1" as="geometry">
            <mxPoint x="300" y="440" as="sourcePoint" />
            <mxPoint x="367" y="597.5" as="targetPoint" />
          </mxGeometry>
        </mxCell>
        <mxCell id="mP2uRWccmHhNL8mi_Wje-5" value="EMPLOYEE" style="swimlane;childLayout=stackLayout;horizontal=1;startSize=50;horizontalStack=0;rounded=1;fontSize=14;fontStyle=0;strokeWidth=2;resizeParent=0;resizeLast=1;shadow=0;dashed=0;align=center;arcSize=4;whiteSpace=wrap;html=1;fillColor=#dae8fc;strokeColor=#6c8ebf;" parent="1" vertex="1">
          <mxGeometry x="328" y="300" width="195" height="180" as="geometry" />
        </mxCell>
        <mxCell id="mP2uRWccmHhNL8mi_Wje-6" value="+ ID&lt;br&gt;+ FIRST NAME&lt;br&gt;+ LAST NAME&lt;br&gt;+ BIRTHDAY&lt;br&gt;+ DEPARTMENT&lt;br&gt;+ POSITION&lt;br&gt;+ STARTED ON&lt;br&gt;+ DATA UPDATED ON" style="align=left;strokeColor=#6c8ebf;fillColor=#dae8fc;spacingLeft=4;fontSize=12;verticalAlign=top;resizable=0;rotatable=0;part=1;html=1;" parent="mP2uRWccmHhNL8mi_Wje-5" vertex="1">
          <mxGeometry y="50" width="195" height="130" as="geometry" />
        </mxCell>
        <mxCell id="mP2uRWccmHhNL8mi_Wje-11" value="LEAVE" style="swimlane;childLayout=stackLayout;horizontal=1;startSize=50;horizontalStack=0;rounded=1;fontSize=14;fontStyle=0;strokeWidth=2;resizeParent=0;resizeLast=1;shadow=0;dashed=0;align=center;arcSize=4;whiteSpace=wrap;html=1;fillColor=#dae8fc;strokeColor=#6c8ebf;" parent="1" vertex="1">
          <mxGeometry x="620" y="460" width="195" height="180" as="geometry" />
        </mxCell>
        <mxCell id="mP2uRWccmHhNL8mi_Wje-12" value="+ APPLICATION ID&lt;br&gt;+ EMPLOYEE ID&lt;br&gt;+ REASON FOR LEAVE&lt;br&gt;+ LEAVE START DATE&lt;br&gt;+ LEAVE END DATA&lt;br&gt;+ REQUEST DATE&lt;br&gt;+ APPROVAL STATUS&lt;br&gt;+ SUPERVISOR ID" style="align=left;strokeColor=#6c8ebf;fillColor=#dae8fc;spacingLeft=4;fontSize=12;verticalAlign=top;resizable=0;rotatable=0;part=1;html=1;" parent="mP2uRWccmHhNL8mi_Wje-11" vertex="1">
          <mxGeometry y="50" width="195" height="130" as="geometry" />
        </mxCell>
        <mxCell id="mP2uRWccmHhNL8mi_Wje-13" value="PAYSLIP" style="swimlane;childLayout=stackLayout;horizontal=1;startSize=50;horizontalStack=0;rounded=1;fontSize=14;fontStyle=0;strokeWidth=2;resizeParent=0;resizeLast=1;shadow=0;dashed=0;align=center;arcSize=4;whiteSpace=wrap;html=1;fillColor=#dae8fc;strokeColor=#6c8ebf;" parent="1" vertex="1">
          <mxGeometry x="30" y="460" width="195" height="180" as="geometry" />
        </mxCell>
        <mxCell id="mP2uRWccmHhNL8mi_Wje-14" value="+ PAYSLIP ID&lt;br&gt;+ EMPLOYEE ID&lt;br&gt;+ CUT-OFF DATE&lt;br&gt;+ GROSS SALARY&lt;br&gt;+ DEDUCTIONS&lt;br&gt;+ APPROVAL STATUS&lt;br&gt;+ HR EMPLOYEE ID" style="align=left;strokeColor=#6c8ebf;fillColor=#dae8fc;spacingLeft=4;fontSize=12;verticalAlign=top;resizable=0;rotatable=0;part=1;html=1;" parent="mP2uRWccmHhNL8mi_Wje-13" vertex="1">
          <mxGeometry y="50" width="195" height="130" as="geometry" />
        </mxCell>
        <mxCell id="mP2uRWccmHhNL8mi_Wje-16" value="" style="edgeStyle=entityRelationEdgeStyle;endArrow=ERzeroToMany;startArrow=ERone;endFill=1;startFill=0;exitX=-0.011;exitY=0.382;exitDx=0;exitDy=0;exitPerimeter=0;" parent="1" source="mP2uRWccmHhNL8mi_Wje-6" target="mP2uRWccmHhNL8mi_Wje-14" edge="1">
          <mxGeometry width="100" height="100" relative="1" as="geometry">
            <mxPoint x="330" y="320" as="sourcePoint" />
            <mxPoint x="377" y="607.5" as="targetPoint" />
            <Array as="points">
              <mxPoint x="330" y="390" />
            </Array>
          </mxGeometry>
        </mxCell>
        <mxCell id="dojwYmuZUQa84D5is7iS-1" value="HR EMPLOYEE" style="swimlane;childLayout=stackLayout;horizontal=1;startSize=50;horizontalStack=0;rounded=1;fontSize=14;fontStyle=0;strokeWidth=2;resizeParent=0;resizeLast=1;shadow=0;dashed=0;align=center;arcSize=4;whiteSpace=wrap;html=1;fillColor=#dae8fc;strokeColor=#6c8ebf;" parent="1" vertex="1">
          <mxGeometry x="30" y="110" width="195" height="180" as="geometry" />
        </mxCell>
        <mxCell id="dojwYmuZUQa84D5is7iS-2" value="+ ID&lt;br&gt;+ FIRST NAME&lt;br&gt;+ LAST NAME&lt;br&gt;+ BIRTHDAY&lt;br&gt;+ DEPARTMENT&lt;br&gt;+ POSITION&lt;br&gt;+ STARTED ON&lt;br&gt;+ DATA UPDATED ON" style="align=left;strokeColor=#6c8ebf;fillColor=#dae8fc;spacingLeft=4;fontSize=12;verticalAlign=top;resizable=0;rotatable=0;part=1;html=1;" parent="dojwYmuZUQa84D5is7iS-1" vertex="1">
          <mxGeometry y="50" width="195" height="130" as="geometry" />
        </mxCell>
        <mxCell id="e_CADfnXP_bFal_hTBPQ-1" value="PAYROLL EMPLOYEE" style="swimlane;childLayout=stackLayout;horizontal=1;startSize=50;horizontalStack=0;rounded=1;fontSize=14;fontStyle=0;strokeWidth=2;resizeParent=0;resizeLast=1;shadow=0;dashed=0;align=center;arcSize=4;whiteSpace=wrap;html=1;fillColor=#dae8fc;strokeColor=#6c8ebf;" vertex="1" parent="1">
          <mxGeometry x="610" y="120" width="195" height="180" as="geometry" />
        </mxCell>
        <mxCell id="e_CADfnXP_bFal_hTBPQ-2" value="+ ID&lt;br&gt;+ FIRST NAME&lt;br&gt;+ LAST NAME&lt;br&gt;+ BIRTHDAY&lt;br&gt;+ DEPARTMENT&lt;br&gt;+ POSITION&lt;br&gt;+ STARTED ON&lt;br&gt;+ DATA UPDATED ON" style="align=left;strokeColor=#6c8ebf;fillColor=#dae8fc;spacingLeft=4;fontSize=12;verticalAlign=top;resizable=0;rotatable=0;part=1;html=1;" vertex="1" parent="e_CADfnXP_bFal_hTBPQ-1">
          <mxGeometry y="50" width="195" height="130" as="geometry" />
        </mxCell>
      </root>
    </mxGraphModel>
  </diagram>
</mxfile>
